<svg width="17" height="18" fill="none" xmlns="http://www.w3.org/2000/svg"><path d="M8.5 2.032c2.27 0 2.539.009 3.435.05 2.304.105 3.38 1.198 3.485 3.484.04.896.049 1.165.049 3.435s-.009 2.538-.05 3.434c-.105 2.285-1.178 3.38-3.484 3.485-.896.04-1.164.05-3.435.05-2.27 0-2.539-.01-3.435-.05-2.309-.106-3.38-1.204-3.484-3.485-.041-.896-.05-1.165-.05-3.435s.01-2.538.05-3.435c.106-2.286 1.179-3.38 3.484-3.484.897-.04 1.165-.049 3.435-.049zM8.5.5C6.192.5 5.903.51 4.996.551 1.909.693.193 2.405.052 5.495.01 6.403 0 6.692 0 9c0 2.309.01 2.598.051 3.505.142 3.087 1.854 4.802 4.944 4.944.908.041 1.197.051 3.505.051 2.309 0 2.598-.01 3.505-.051 3.084-.142 4.804-1.854 4.943-4.944C16.99 11.598 17 11.308 17 9s-.01-2.597-.051-3.504C16.81 2.412 15.095.693 12.005.552 11.098.51 10.808.5 8.5.5zm0 4.135a4.365 4.365 0 100 8.73 4.365 4.365 0 000-8.73zm0 7.198a2.833 2.833 0 110-5.666 2.833 2.833 0 010 5.666zm4.538-8.39a1.02 1.02 0 10-.001 2.041 1.02 1.02 0 000-2.04z" fill="#fff"/></svg>